<svg width="20" height="20" viewBox="0 0 20 20" fill="none" xmlns="http://www.w3.org/2000/svg">
<g clip-path="url(#clip0_1853_3457)">
<path d="M8.56567 0V11.5662H11.4343V0H8.56567ZM2.92847 2.92847C1.11882 4.73812 0 7.23857 0 10C0 15.5229 4.47715 20 10 20C15.5229 20 20 15.5229 20 10C20 7.23857 18.8812 4.73812 17.0715 2.92847L15.0574 4.94263C16.3517 6.23693 17.1521 8.02517 17.1521 10C17.1521 13.9497 13.9497 17.1521 10 17.1521C6.05032 17.1521 2.8479 13.9497 2.8479 10C2.8479 8.02517 3.64832 6.23693 4.94263 4.94263L2.92847 2.92847Z" fill="white"/>
</g>
<defs>
<clipPath id="clip0_1853_3457">
<rect width="20" height="20" fill="white"/>
</clipPath>
</defs>
</svg>
