<svg width="26" height="25" viewBox="0 0 26 25" fill="none" xmlns="http://www.w3.org/2000/svg">
<path d="M15.3334 23.6667H10.6667C6.26721 23.6667 4.06687 23.6667 2.70071 22.2994C1.33337 20.9332 1.33337 18.7329 1.33337 14.3334V12.0001C1.33337 7.60058 1.33337 5.40025 2.70071 4.03408C4.06687 2.66675 6.26721 2.66675 10.6667 2.66675H15.3334C19.7329 2.66675 21.9332 2.66675 23.2994 4.03408C24.6667 5.40025 24.6667 7.60058 24.6667 12.0001V14.3334C24.6667 18.7329 24.6667 20.9332 23.2994 22.2994C22.5375 23.0624 21.5167 23.3996 20 23.5477M7.16671 2.66675V0.916748M18.8334 2.66675V0.916748M24.0834 8.50008H11.5417M1.33337 8.50008H5.85421" stroke="#757070" stroke-width="1.75" stroke-linecap="round"/>
<path d="M20 17.8333C20 18.1428 19.8771 18.4395 19.6583 18.6583C19.4395 18.8771 19.1428 19 18.8333 19C18.5239 19 18.2272 18.8771 18.0084 18.6583C17.7896 18.4395 17.6667 18.1428 17.6667 17.8333C17.6667 17.5239 17.7896 17.2272 18.0084 17.0084C18.2272 16.7896 18.5239 16.6667 18.8333 16.6667C19.1428 16.6667 19.4395 16.7896 19.6583 17.0084C19.8771 17.2272 20 17.5239 20 17.8333ZM20 13.1667C20 13.4761 19.8771 13.7728 19.6583 13.9916C19.4395 14.2104 19.1428 14.3333 18.8333 14.3333C18.5239 14.3333 18.2272 14.2104 18.0084 13.9916C17.7896 13.7728 17.6667 13.4761 17.6667 13.1667C17.6667 12.8572 17.7896 12.5605 18.0084 12.3417C18.2272 12.1229 18.5239 12 18.8333 12C19.1428 12 19.4395 12.1229 19.6583 12.3417C19.8771 12.5605 20 12.8572 20 13.1667ZM14.1667 17.8333C14.1667 18.1428 14.0437 18.4395 13.825 18.6583C13.6062 18.8771 13.3094 19 13 19C12.6906 19 12.3938 18.8771 12.175 18.6583C11.9562 18.4395 11.8333 18.1428 11.8333 17.8333C11.8333 17.5239 11.9562 17.2272 12.175 17.0084C12.3938 16.7896 12.6906 16.6667 13 16.6667C13.3094 16.6667 13.6062 16.7896 13.825 17.0084C14.0437 17.2272 14.1667 17.5239 14.1667 17.8333ZM14.1667 13.1667C14.1667 13.4761 14.0437 13.7728 13.825 13.9916C13.6062 14.2104 13.3094 14.3333 13 14.3333C12.6906 14.3333 12.3938 14.2104 12.175 13.9916C11.9562 13.7728 11.8333 13.4761 11.8333 13.1667C11.8333 12.8572 11.9562 12.5605 12.175 12.3417C12.3938 12.1229 12.6906 12 13 12C13.3094 12 13.6062 12.1229 13.825 12.3417C14.0437 12.5605 14.1667 12.8572 14.1667 13.1667ZM8.33333 17.8333C8.33333 18.1428 8.21042 18.4395 7.99162 18.6583C7.77283 18.8771 7.47609 19 7.16667 19C6.85725 19 6.5605 18.8771 6.34171 18.6583C6.12292 18.4395 6 18.1428 6 17.8333C6 17.5239 6.12292 17.2272 6.34171 17.0084C6.5605 16.7896 6.85725 16.6667 7.16667 16.6667C7.47609 16.6667 7.77283 16.7896 7.99162 17.0084C8.21042 17.2272 8.33333 17.5239 8.33333 17.8333ZM8.33333 13.1667C8.33333 13.4761 8.21042 13.7728 7.99162 13.9916C7.77283 14.2104 7.47609 14.3333 7.16667 14.3333C6.85725 14.3333 6.5605 14.2104 6.34171 13.9916C6.12292 13.7728 6 13.4761 6 13.1667C6 12.8572 6.12292 12.5605 6.34171 12.3417C6.5605 12.1229 6.85725 12 7.16667 12C7.47609 12 7.77283 12.1229 7.99162 12.3417C8.21042 12.5605 8.33333 12.8572 8.33333 13.1667Z" fill="#757070"/>
</svg>
