<svg width="28" height="28" viewBox="0 0 28 28" fill="none" xmlns="http://www.w3.org/2000/svg">
<path d="M16.3333 25.6667H11.6666C7.26715 25.6667 5.06681 25.6667 3.70065 24.2994C2.33331 22.9332 2.33331 20.7329 2.33331 16.3334V14.0001C2.33331 9.60058 2.33331 7.40025 3.70065 6.03408C5.06681 4.66675 7.26715 4.66675 11.6666 4.66675H16.3333C20.7328 4.66675 22.9331 4.66675 24.2993 6.03408C25.6666 7.40025 25.6666 9.60058 25.6666 14.0001V16.3334C25.6666 20.7329 25.6666 22.9332 24.2993 24.2994C23.5375 25.0624 22.5166 25.3996 21 25.5477M8.16665 4.66675V2.91675M19.8333 4.66675V2.91675M25.0833 10.5001H12.5416M2.33331 10.5001H6.85415" stroke="#757070" stroke-width="1.75" stroke-linecap="round"/>
<path d="M20.9999 19.8333C20.9999 20.1428 20.877 20.4395 20.6582 20.6583C20.4394 20.8771 20.1427 21 19.8333 21C19.5239 21 19.2271 20.8771 19.0083 20.6583C18.7895 20.4395 18.6666 20.1428 18.6666 19.8333C18.6666 19.5239 18.7895 19.2272 19.0083 19.0084C19.2271 18.7896 19.5239 18.6667 19.8333 18.6667C20.1427 18.6667 20.4394 18.7896 20.6582 19.0084C20.877 19.2272 20.9999 19.5239 20.9999 19.8333ZM20.9999 15.1667C20.9999 15.4761 20.877 15.7728 20.6582 15.9916C20.4394 16.2104 20.1427 16.3333 19.8333 16.3333C19.5239 16.3333 19.2271 16.2104 19.0083 15.9916C18.7895 15.7728 18.6666 15.4761 18.6666 15.1667C18.6666 14.8572 18.7895 14.5605 19.0083 14.3417C19.2271 14.1229 19.5239 14 19.8333 14C20.1427 14 20.4394 14.1229 20.6582 14.3417C20.877 14.5605 20.9999 14.8572 20.9999 15.1667ZM15.1666 19.8333C15.1666 20.1428 15.0437 20.4395 14.8249 20.6583C14.6061 20.8771 14.3094 21 13.9999 21C13.6905 21 13.3938 20.8771 13.175 20.6583C12.9562 20.4395 12.8333 20.1428 12.8333 19.8333C12.8333 19.5239 12.9562 19.2272 13.175 19.0084C13.3938 18.7896 13.6905 18.6667 13.9999 18.6667C14.3094 18.6667 14.6061 18.7896 14.8249 19.0084C15.0437 19.2272 15.1666 19.5239 15.1666 19.8333ZM15.1666 15.1667C15.1666 15.4761 15.0437 15.7728 14.8249 15.9916C14.6061 16.2104 14.3094 16.3333 13.9999 16.3333C13.6905 16.3333 13.3938 16.2104 13.175 15.9916C12.9562 15.7728 12.8333 15.4761 12.8333 15.1667C12.8333 14.8572 12.9562 14.5605 13.175 14.3417C13.3938 14.1229 13.6905 14 13.9999 14C14.3094 14 14.6061 14.1229 14.8249 14.3417C15.0437 14.5605 15.1666 14.8572 15.1666 15.1667ZM9.33327 19.8333C9.33327 20.1428 9.21036 20.4395 8.99156 20.6583C8.77277 20.8771 8.47602 21 8.16661 21C7.85719 21 7.56044 20.8771 7.34165 20.6583C7.12286 20.4395 6.99994 20.1428 6.99994 19.8333C6.99994 19.5239 7.12286 19.2272 7.34165 19.0084C7.56044 18.7896 7.85719 18.6667 8.16661 18.6667C8.47602 18.6667 8.77277 18.7896 8.99156 19.0084C9.21036 19.2272 9.33327 19.5239 9.33327 19.8333ZM9.33327 15.1667C9.33327 15.4761 9.21036 15.7728 8.99156 15.9916C8.77277 16.2104 8.47602 16.3333 8.16661 16.3333C7.85719 16.3333 7.56044 16.2104 7.34165 15.9916C7.12286 15.7728 6.99994 15.4761 6.99994 15.1667C6.99994 14.8572 7.12286 14.5605 7.34165 14.3417C7.56044 14.1229 7.85719 14 8.16661 14C8.47602 14 8.77277 14.1229 8.99156 14.3417C9.21036 14.5605 9.33327 14.8572 9.33327 15.1667Z" fill="#757070"/>
</svg>
