<svg width="36" height="36" viewBox="0 0 36 36" fill="none" xmlns="http://www.w3.org/2000/svg">
<path d="M12 16.1399H11.13C9.94272 16.097 8.75932 16.2986 7.65322 16.7321C6.54711 17.1656 5.5419 17.8218 4.69996 18.6599L4.45996 18.9399V27.2199H8.53996V22.5199L9.08996 21.8999L9.33996 21.6099C10.6419 20.2724 12.2627 19.2882 14.05 18.7499C13.1552 18.0691 12.4494 17.1706 12 16.1399Z" fill="#757070"/>
<path d="M31.3401 18.6301C30.4981 17.792 29.4929 17.1358 28.3868 16.7023C27.2807 16.2688 26.0973 16.0672 24.9101 16.1101C24.5459 16.1112 24.1821 16.1312 23.8201 16.1701C23.3622 17.1371 22.6757 17.9779 21.8201 18.6201C23.728 19.148 25.4564 20.185 26.8201 21.6201L27.0701 21.9001L27.6101 22.5201V27.2301H31.5501V18.9101L31.3401 18.6301Z" fill="#757070"/>
<path d="M11.1001 14.19H11.4101C11.2661 12.9533 11.4831 11.7013 12.0349 10.5851C12.5868 9.469 13.4499 8.53645 14.5201 7.90005C14.1322 7.3074 13.597 6.82566 12.9669 6.502C12.3369 6.17833 11.6336 6.02385 10.9259 6.05368C10.2182 6.0835 9.53033 6.29661 8.92974 6.67213C8.32914 7.04765 7.83637 7.57271 7.49967 8.1959C7.16297 8.81909 6.99389 9.51903 7.00899 10.2272C7.02408 10.9354 7.22283 11.6275 7.58577 12.2358C7.94872 12.844 8.46342 13.3476 9.07946 13.6972C9.69551 14.0468 10.3918 14.2304 11.1001 14.23V14.19Z" fill="#757070"/>
<path d="M24.43 13.4401C24.4421 13.6699 24.4421 13.9002 24.43 14.1301C24.6219 14.1605 24.8157 14.1772 25.01 14.1801H25.2C25.9052 14.1425 26.5886 13.9229 27.1838 13.5427C27.779 13.1626 28.2656 12.6348 28.5962 12.0108C28.9269 11.3867 29.0903 10.6877 29.0706 9.98179C29.0509 9.27585 28.8488 8.58704 28.4838 7.98241C28.1189 7.37779 27.6036 6.87796 26.9882 6.53159C26.3728 6.18521 25.6781 6.0041 24.9719 6.00587C24.2657 6.00765 23.572 6.19226 22.9583 6.54172C22.3446 6.89119 21.8319 7.39361 21.47 8.00006C22.3751 8.59099 23.1193 9.39736 23.6359 10.3468C24.1525 11.2963 24.4254 12.3592 24.43 13.4401Z" fill="#757070"/>
<path d="M17.8699 17.92C20.3386 17.92 22.3399 15.9187 22.3399 13.45C22.3399 10.9813 20.3386 8.97998 17.8699 8.97998C15.4012 8.97998 13.3999 10.9813 13.3999 13.45C13.3999 15.9187 15.4012 17.92 17.8699 17.92Z" fill="#757070"/>
<path d="M18.11 20.3C16.804 20.2473 15.5009 20.4593 14.279 20.9233C13.0572 21.3873 11.9418 22.0937 11 23L10.75 23.28V29.61C10.7539 29.8162 10.7984 30.0196 10.8809 30.2086C10.9634 30.3975 11.0824 30.5684 11.231 30.7114C11.3796 30.8544 11.5549 30.9668 11.7469 31.042C11.9389 31.1173 12.1438 31.154 12.35 31.15H23.84C24.0462 31.154 24.2511 31.1173 24.4431 31.042C24.6351 30.9668 24.8104 30.8544 24.959 30.7114C25.1076 30.5684 25.2266 30.3975 25.3091 30.2086C25.3916 30.0196 25.4361 29.8162 25.44 29.61V23.3L25.2 23C24.2643 22.0909 23.1528 21.3825 21.9337 20.9182C20.7145 20.4539 19.4134 20.2436 18.11 20.3Z" fill="#757070"/>
</svg>
